<?xml version="1.0" encoding="utf-8"?>
<!-- Generator: Adobe Illustrator 22.0.0, SVG Export Plug-In . SVG Version: 6.00 Build 0)  -->
<svg version="1.1" id="Слой_1" xmlns="http://www.w3.org/2000/svg" xmlns:xlink="http://www.w3.org/1999/xlink" x="0px" y="0px"
	 viewBox="0 0 100 100" style="enable-background:new 0 0 100 100;" xml:space="preserve">
<style type="text/css">
	.st0{fill:url(#SVGID_1_);}
	.st1{fill:#E9F4FC;}
	.st2{fill:url(#SVGID_2_);}
	.st3{fill:url(#SVGID_3_);}
	.st4{fill:url(#SVGID_4_);}
	.st5{fill:url(#SVGID_5_);}
	.st6{fill:url(#SVGID_6_);}
</style>
<g>
	<linearGradient id="SVGID_1_" gradientUnits="userSpaceOnUse" x1="57.0098" y1="56.4419" x2="63.8031" y2="79.601">
		<stop  offset="0" style="stop-color:#DFF5FB"/>
		<stop  offset="0.2502" style="stop-color:#D3EEF6"/>
		<stop  offset="1" style="stop-color:#AED8E6"/>
	</linearGradient>
	<path class="st0" d="M87.4,68.4c0-3.6-2.8-6.6-6.3-6.8c-1.4-4-5.2-6.9-9.7-6.9c-1.2,0-2.3,0.2-3.4,0.6c-1.9-5.1-6.9-8.8-12.7-8.8
		c-7,0-12.7,5.3-13.5,12c0,0-0.1,0-0.1,0c-4.6,0-8.4,3.7-8.4,8.4c0,4.2,3.1,7.7,7.2,8.3l0,0.1h30.9h10.3v-0.1
		C84.9,74.7,87.4,71.8,87.4,68.4z"/>
	<g>
		<path class="st1" d="M35.5,69.5c0-4.6,3.7-8.4,8.4-8.4c0,0,0.1,0,0.1,0c0.8-6.8,6.5-12,13.5-12c3.6,0,6.8,1.4,9.3,3.7
			c-2.4-3.8-6.6-6.2-11.4-6.2c-7,0-12.7,5.3-13.5,12c0,0-0.1,0-0.1,0c-4.6,0-8.4,3.7-8.4,8.4c0,2.7,1.2,5,3.2,6.5
			C35.8,72.3,35.5,70.9,35.5,69.5z"/>
	</g>
	<g>
		
			<linearGradient id="SVGID_2_" gradientUnits="userSpaceOnUse" x1="36.4928" y1="13.8731" x2="30.9346" y2="41.9728" gradientTransform="matrix(0.9956 -9.368146e-02 9.368146e-02 0.9956 9.4846 33.6685)">
			<stop  offset="0" style="stop-color:#DFF5FB"/>
			<stop  offset="0.2502" style="stop-color:#D3EEF6"/>
			<stop  offset="1" style="stop-color:#AED8E6"/>
		</linearGradient>
		<path class="st2" d="M66.2,70.1c-15.3,1.4-28.8-9.8-30.2-25c-0.9-9.6,3.2-18.5,10.2-24.2c-14.2,2.4-24.3,15.4-23,30
			c1.4,15.3,15,26.5,30.2,25c5.7-0.5,10.8-2.7,14.9-6.1C67.6,70,66.9,70.1,66.2,70.1z"/>
		
			<linearGradient id="SVGID_3_" gradientUnits="userSpaceOnUse" x1="34.239" y1="47.0882" x2="41.3411" y2="6.3282" gradientTransform="matrix(0.9956 -9.368146e-02 9.368146e-02 0.9956 9.4846 33.6685)">
			<stop  offset="0" style="stop-color:#1570A3"/>
			<stop  offset="1" style="stop-color:#B9D7E4"/>
		</linearGradient>
		<path class="st3" d="M68.1,69.9c-0.6,0.1-1.3,0.2-1.9,0.3c-15.3,1.4-28.8-9.8-30.2-25c-0.9-9.5,3.1-18.2,9.9-23.9
			C36.3,26,30.1,36.3,31.2,47.6c1.4,14.7,14.5,25.6,29.2,24.2C63.1,71.5,65.7,70.9,68.1,69.9z"/>
	</g>
	<linearGradient id="SVGID_4_" gradientUnits="userSpaceOnUse" x1="12.6485" y1="103.0692" x2="30.2494" y2="70.9553">
		<stop  offset="0" style="stop-color:#1570A3"/>
		<stop  offset="1" style="stop-color:#B9D7E4"/>
	</linearGradient>
	<path class="st4" d="M45.1,74.4c0-3.1-2.5-5.7-5.7-5.7c0,0,0,0-0.1,0c-0.5-4.6-4.4-8.1-9.1-8.1c-3.9,0-7.3,2.5-8.6,5.9
		c-0.7-0.3-1.5-0.4-2.3-0.4c-3.8,0-7,3.1-7,7c0,3.8,3.1,7,7,7h20.9l0-0.1C43,79.6,45.1,77.3,45.1,74.4z"/>
	<path class="st1" d="M14.7,74.7c0-3.8,3.1-7,7-7c0.8,0,1.6,0.1,2.3,0.4c1.3-3.5,4.7-5.9,8.6-5.9c1.4,0,2.7,0.3,3.9,0.9
		c-1.6-1.5-3.8-2.4-6.2-2.4c-3.9,0-7.3,2.5-8.6,5.9c-0.7-0.3-1.5-0.4-2.3-0.4c-3.8,0-7,3.1-7,7c0,2.9,1.8,5.4,4.3,6.4
		C15.5,78.3,14.7,76.6,14.7,74.7z"/>
	<linearGradient id="SVGID_5_" gradientUnits="userSpaceOnUse" x1="41.8105" y1="39.4917" x2="52.6129" y2="39.4917">
		<stop  offset="0" style="stop-color:#F28B6C"/>
		<stop  offset="1" style="stop-color:#C7586B"/>
	</linearGradient>
	<path class="st5" d="M52.6,39.5L52.6,39.5C52.6,39.5,52.6,39.5,52.6,39.5c-3,0-5.4-2.4-5.4-5.3c0,0,0-0.1,0-0.1h0c0,0,0,0,0,0
		c0,3-2.4,5.4-5.4,5.4c3,0,5.4,2.4,5.4,5.4c0,0,0,0,0,0h0C47.2,41.9,49.6,39.5,52.6,39.5z"/>
	<linearGradient id="SVGID_6_" gradientUnits="userSpaceOnUse" x1="50.4091" y1="31.2219" x2="66.8765" y2="31.2219">
		<stop  offset="0" style="stop-color:#F28B6C"/>
		<stop  offset="1" style="stop-color:#C7586B"/>
	</linearGradient>
	<path class="st6" d="M66.9,31.2L66.9,31.2c0,0-0.1,0-0.1,0c-4.5,0-8.1-3.6-8.1-8.1c0,0,0-0.1,0-0.1h0c0,0,0,0,0,0.1
		c0,4.5-3.7,8.2-8.2,8.2c4.5,0,8.2,3.7,8.2,8.2c0,0,0,0,0,0.1h0C58.6,34.9,62.3,31.2,66.9,31.2z"/>
</g>
</svg>
