<svg xmlns="http://www.w3.org/2000/svg" viewBox="0 0 64 64" width="128" height="128" role="img" aria-label="Snow">
  <path d="M18 24a10 10 0 0 1 20-4 8 8 0 0 1 0 16H18a8 8 0 0 1 0-16z" fill="#B0BEC5"/>
  <g stroke="#90CAF9" stroke-width="2" stroke-linecap="round">
    <line x1="22" y1="44" x2="22" y2="52"/>
    <line x1="22" y1="48" x2="18" y2="46"/>
    <line x1="22" y1="48" x2="26" y2="46"/>

    <line x1="32" y1="44" x2="32" y2="52"/>
    <line x1="32" y1="48" x2="28" y2="46"/>
    <line x1="32" y1="48" x2="36" y2="46"/>

    <line x1="42" y1="44" x2="42" y2="52"/>
    <line x1="42" y1="48" x2="38" y2="46"/>
    <line x1="42" y1="48" x2="46" y2="46"/>
  </g>
</svg>